<svg xmlns="http://www.w3.org/2000/svg" width="24.251" height="16.504"><path data-name="パス 893" d="M23.65.25H.598A.348.348 0 00.25.598v15.308a.348.348 0 00.348.348H23.65a.348.348 0 00.348-.348V.598A.348.348 0 0023.65.25zM.95 2.65a2.445 2.445 0 00.392.326l4.14 2.749a.348.348 0 10.385-.58l-4.14-2.749A1.736 1.736 0 01.95.95h22.36a1.736 1.736 0 01-.777 1.449l-9.44 6.268a1.736 1.736 0 01-1.925 0l-4.14-2.749a.348.348 0 00-.385.58L9.286 8.25l-7.948 5.28a2.445 2.445 0 00-.392.326zm0 12.909a1.736 1.736 0 01.777-1.449l8.188-5.44.863.573a2.43 2.43 0 002.694 0l.863-.573 8.192 5.439a1.736 1.736 0 01.777 1.449zm22.36-1.7a2.444 2.444 0 00-.392-.325L14.965 8.25l7.948-5.277a2.445 2.445 0 00.392-.326z" fill="#fff" stroke="#fff" stroke-linecap="round" stroke-linejoin="round" stroke-width=".5"/></svg>